<?xml version="1.0" standalone="no"?><!DOCTYPE svg PUBLIC "-//W3C//DTD SVG 1.1//EN" "http://www.w3.org/Graphics/SVG/1.1/DTD/svg11.dtd"><svg t="1712392258131" class="icon" viewBox="0 0 1024 1024" version="1.1" xmlns="http://www.w3.org/2000/svg" p-id="6593" xmlns:xlink="http://www.w3.org/1999/xlink" width="200" height="200"><path d="M512 511.991895m-499.841753 0a499.841753 499.841753 0 1 0 999.683506 0 499.841753 499.841753 0 1 0-999.683506 0Z" fill="#FF1A1A" p-id="6594"></path><path d="M12.158247 511.991895a499.841753 382.838887 0 1 0 999.683506 0 499.841753 382.838887 0 1 0-999.683506 0Z" fill="#D60909" p-id="6595"></path><path d="M12.158247 511.991895c0 276.081372 223.784698 499.849858 499.841753 499.849858s499.841753-223.768487 499.841753-499.849858H12.158247z" fill="#FFFFFF" p-id="6596"></path><path d="M512 894.830782c276.057055 0 499.841753-171.415074 499.841753-382.838887H12.158247c0 211.423813 223.784698 382.838887 499.841753 382.838887z" fill="#D8E5EA" p-id="6597"></path><path d="M512 0C229.677395 0 0 229.677395 0 511.991895c0 282.322605 229.677395 512.008105 512 512.008105s512-229.6855 512-512.008105C1024 229.677395 794.322605 0 512 0z m0 24.316494c264.83094 0 480.882993 212.226257 487.375497 475.517153H24.624503C31.117007 236.542752 247.16906 24.316494 512 24.316494z m0 975.367012c-264.83094 0-480.882993-212.234363-487.375497-475.533364h974.750994c-6.492504 263.299001-222.544556 475.533364-487.375497 475.533364z" fill="#33363A" p-id="6598"></path><path d="M512 558.209445m-135.880571 0a135.880571 135.880571 0 1 0 271.761142 0 135.880571 135.880571 0 1 0-271.761142 0Z" fill="#A7BBC1" p-id="6599"></path><path d="M298.517 512c0 0 0 0 0 0 0 117.903 95.579 213.483 213.483 213.483 117.903 0 213.483-95.579 213.483-213.483 0 0 0 0 0 0 0-117.903-95.579-213.483-213.483-213.483-117.903 0-213.483 95.579-213.483 213.483z" fill="#FFFFFF" p-id="6600"></path><path d="M415.917425 608.082575c-53.066696-53.066696-53.058591-139.090348 0-192.173255 53.066696-53.058591 139.098453-53.058591 192.157044 0" fill="#D8E5EA" p-id="6601"></path><path d="M512 730.059c-58.237 0-112.999-22.683-154.187-63.871-85.002-85.002-85.002-223.335 0-308.373 85.026-85.002 223.347-85.002 308.362 0 39.461 39.252 63.884 93.593 63.884 153.637 0 0.198 0 0.395-0.001 0.594 0 58.207-22.683 112.969-63.882 154.157-39.237 39.445-93.557 63.86-153.579 63.86-0.208 0-0.42 0-0.627-0.001zM512 329.853c-0.101 0-0.219 0-0.335 0-50.197 0-95.639 20.364-128.515 53.281-71.036 71.071-71.036 186.686-0.001 257.733 32.795 32.972 78.196 53.378 128.364 53.378 0.172 0 0.345 0 0.513 0 0.121 0 0.293 0.001 0.47 0.001 50.16 0 95.555-20.406 128.337-53.372 32.988-32.807 53.398-78.214 53.398-128.39 0-0.167 0-0.331 0-0.496 0-48.647-18.957-94.409-53.391-128.838-32.871-32.926-78.313-53.295-128.509-53.295-0.116 0-0.234 0-0.351 0z" fill="#33363A" p-id="6602"></path><path d="M558.233761 558.225656c-25.524214 25.499897-66.927098 25.499897-92.4351 0a65.362737 65.362737 0 1 1 92.4351 0z" fill="#FFFFFF" p-id="6603"></path><path d="M465.798661 465.798661A65.354631 65.354631 0 0 1 558.233761 558.225656" fill="#D8E5EA" p-id="6604"></path><path d="M512.015 633.715c-0.070 0-0.157 0-0.24 0-33.536 0-63.898-13.597-85.87-35.58-47.489-47.5-47.489-124.759 0-172.234 21.907-22.041 52.241-35.683 85.762-35.683 0.117 0 0.237 0 0.354 0 32.518 0 63.107 12.683 86.105 35.683 47.474 47.46 47.474 124.72 0.015 172.221l-0.015 0.015c-21.975 21.983-52.338 35.58-85.875 35.58-0.084 0-0.164 0-0.25 0zM512 428.425c-0.067 0-0.149 0-0.229 0-23.006 0-43.825 9.362-58.853 24.484-15.108 15.139-24.449 36.032-24.449 59.105 0 23.073 9.34 43.967 24.445 59.102 32.573 32.562 85.612 32.562 118.213-0.001 15.091-15.138 24.422-36.027 24.422-59.095 0-23.073-9.338-43.967-24.438-59.108-15.055-15.125-35.895-24.486-58.921-24.486-0.067 0-0.135 0-0.202 0z" fill="#33363A" p-id="6605"></path></svg>